<mxfile host="app.diagrams.net" agent="Mozilla/5.0 (Macintosh; Intel Mac OS X 10_15_7) AppleWebKit/537.36 (KHTML, like Gecko) Chrome/130.0.0.0 Safari/537.36 Edg/130.0.0.0" version="24.8.1">
  <diagram name="第 1 页" id="HJdR2ewPqc4SO0az2n2Y">
    <mxGraphModel dx="723" dy="-3708" grid="1" gridSize="10" guides="1" tooltips="1" connect="1" arrows="1" fold="1" page="1" pageScale="1" pageWidth="1169" pageHeight="827" background="#ffffff" math="0" shadow="1">
      <root>
        <mxCell id="0" />
        <mxCell id="1" parent="0" />
        <mxCell id="tK4glbDDSP-7OP82E7w2-1" value="" style="rounded=0;whiteSpace=wrap;html=1;shadow=1;strokeColor=#b85450;strokeWidth=2;align=center;verticalAlign=middle;fontFamily=Helvetica;fontSize=12;fillColor=#f8cecc;" parent="1" vertex="1">
          <mxGeometry x="413.19" y="4435.5" width="270" height="100" as="geometry" />
        </mxCell>
        <mxCell id="tK4glbDDSP-7OP82E7w2-2" value="" style="rounded=0;whiteSpace=wrap;html=1;strokeWidth=2;container=0;shadow=1;" parent="1" vertex="1">
          <mxGeometry x="413.19" y="4300" width="270" height="130" as="geometry" />
        </mxCell>
        <mxCell id="tK4glbDDSP-7OP82E7w2-3" value="&lt;font face=&quot;Times New Roman&quot;&gt;NTFN Object 1&lt;/font&gt;" style="rounded=0;whiteSpace=wrap;html=1;strokeWidth=2;container=0;shadow=1;" parent="1" vertex="1">
          <mxGeometry x="455.16" y="4315" width="175" height="20" as="geometry" />
        </mxCell>
        <mxCell id="tK4glbDDSP-7OP82E7w2-4" value="&lt;font face=&quot;Times New Roman&quot;&gt;recv status idx&lt;/font&gt;" style="rounded=0;whiteSpace=wrap;html=1;strokeWidth=2;container=0;shadow=1;fillColor=#f8cecc;strokeColor=#b85450;" parent="1" vertex="1">
          <mxGeometry x="455.16" y="4335" width="75" height="20" as="geometry" />
        </mxCell>
        <mxCell id="tK4glbDDSP-7OP82E7w2-5" value="&lt;font face=&quot;Times New Roman&quot;&gt;send status entries&lt;/font&gt;" style="rounded=0;whiteSpace=wrap;html=1;strokeWidth=2;container=0;shadow=1;fillColor=#f8cecc;strokeColor=#b85450;" parent="1" vertex="1">
          <mxGeometry x="530.16" y="4335" width="100" height="20" as="geometry" />
        </mxCell>
        <mxCell id="tK4glbDDSP-7OP82E7w2-6" value="&lt;font face=&quot;Times New Roman&quot;&gt;NTFN Object 2&lt;/font&gt;" style="rounded=0;whiteSpace=wrap;html=1;strokeWidth=2;container=0;shadow=1;" parent="1" vertex="1">
          <mxGeometry x="455.16" y="4370" width="175" height="20" as="geometry" />
        </mxCell>
        <mxCell id="tK4glbDDSP-7OP82E7w2-7" value="&lt;font face=&quot;Times New Roman&quot;&gt;recv status idx&lt;/font&gt;" style="rounded=0;whiteSpace=wrap;html=1;strokeWidth=2;container=0;shadow=1;fillColor=#f8cecc;strokeColor=#b85450;" parent="1" vertex="1">
          <mxGeometry x="455.16" y="4390" width="75" height="20" as="geometry" />
        </mxCell>
        <mxCell id="tK4glbDDSP-7OP82E7w2-8" value="&lt;font face=&quot;Times New Roman&quot;&gt;send status entries&lt;/font&gt;" style="rounded=0;whiteSpace=wrap;html=1;strokeWidth=2;container=0;shadow=1;fillColor=#f8cecc;strokeColor=#b85450;" parent="1" vertex="1">
          <mxGeometry x="530.16" y="4390" width="100" height="20" as="geometry" />
        </mxCell>
        <mxCell id="tK4glbDDSP-7OP82E7w2-9" value="" style="rounded=0;whiteSpace=wrap;html=1;" parent="1" vertex="1">
          <mxGeometry x="423.19" y="4482" width="125" height="30" as="geometry" />
        </mxCell>
        <mxCell id="tK4glbDDSP-7OP82E7w2-10" value="&lt;font style=&quot;font-size: 10px;&quot; face=&quot;Times New Roman&quot;&gt;mode&lt;/font&gt;" style="rounded=0;whiteSpace=wrap;html=1;" parent="1" vertex="1">
          <mxGeometry x="423.19" y="4479.5" width="30" height="25" as="geometry" />
        </mxCell>
        <mxCell id="tK4glbDDSP-7OP82E7w2-11" value="&lt;font style=&quot;font-size: 10px;&quot; face=&quot;Times New Roman&quot;&gt;hart id&lt;/font&gt;" style="rounded=0;whiteSpace=wrap;html=1;" parent="1" vertex="1">
          <mxGeometry x="453.19" y="4479.5" width="35" height="25" as="geometry" />
        </mxCell>
        <mxCell id="tK4glbDDSP-7OP82E7w2-12" value="&lt;font face=&quot;Times New Roman&quot; style=&quot;font-size: 10px;&quot;&gt;reserved&lt;/font&gt;" style="rounded=0;whiteSpace=wrap;html=1;" parent="1" vertex="1">
          <mxGeometry x="488.19" y="4479.5" width="40" height="25" as="geometry" />
        </mxCell>
        <mxCell id="tK4glbDDSP-7OP82E7w2-13" value="&lt;font face=&quot;Times New Roman&quot; style=&quot;font-size: 10px;&quot;&gt;irq&lt;/font&gt;" style="rounded=0;whiteSpace=wrap;html=1;" parent="1" vertex="1">
          <mxGeometry x="528.1899999999999" y="4479.5" width="20" height="25" as="geometry" />
        </mxCell>
        <mxCell id="tK4glbDDSP-7OP82E7w2-14" value="" style="rounded=0;whiteSpace=wrap;html=1;" parent="1" vertex="1">
          <mxGeometry x="557.02" y="4484.5" width="110" height="20" as="geometry" />
        </mxCell>
        <mxCell id="tK4glbDDSP-7OP82E7w2-15" value="&lt;font face=&quot;Times New Roman&quot;&gt;&lt;span style=&quot;font-size: 10px;&quot;&gt;vaild&lt;/span&gt;&lt;/font&gt;" style="rounded=0;whiteSpace=wrap;html=1;" parent="1" vertex="1">
          <mxGeometry x="557.02" y="4482" width="30" height="12.5" as="geometry" />
        </mxCell>
        <mxCell id="tK4glbDDSP-7OP82E7w2-16" value="&lt;font style=&quot;font-size: 10px;&quot; face=&quot;Times New Roman&quot;&gt;&lt;b style=&quot;&quot;&gt;Mem Frame&lt;/b&gt;&lt;/font&gt;" style="text;html=1;align=center;verticalAlign=middle;whiteSpace=wrap;rounded=0;shadow=1;" parent="1" vertex="1">
          <mxGeometry x="568.1899999999999" y="4433.5" width="80" height="30" as="geometry" />
        </mxCell>
        <mxCell id="tK4glbDDSP-7OP82E7w2-17" value="&lt;font face=&quot;Times New Roman&quot;&gt;&lt;span style=&quot;font-size: 10px;&quot;&gt;vec&lt;/span&gt;&lt;/font&gt;" style="rounded=0;whiteSpace=wrap;html=1;" parent="1" vertex="1">
          <mxGeometry x="587.02" y="4482" width="30" height="12.5" as="geometry" />
        </mxCell>
        <mxCell id="tK4glbDDSP-7OP82E7w2-18" value="&lt;font face=&quot;Times New Roman&quot;&gt;&lt;span style=&quot;font-size: 10px;&quot;&gt;recv index&lt;/span&gt;&lt;/font&gt;" style="rounded=0;whiteSpace=wrap;html=1;" parent="1" vertex="1">
          <mxGeometry x="617.02" y="4482" width="50" height="12.5" as="geometry" />
        </mxCell>
        <mxCell id="tK4glbDDSP-7OP82E7w2-19" value="&lt;font style=&quot;font-size: 10px;&quot; face=&quot;Times New Roman&quot;&gt;Receiver Status Table&lt;/font&gt;" style="rounded=0;whiteSpace=wrap;html=1;" parent="1" vertex="1">
          <mxGeometry x="423.19" y="4462" width="125" height="17.5" as="geometry" />
        </mxCell>
        <mxCell id="tK4glbDDSP-7OP82E7w2-20" value="&lt;font style=&quot;font-size: 10px;&quot; face=&quot;Times New Roman&quot;&gt;Sender Status Table&lt;/font&gt;" style="rounded=0;whiteSpace=wrap;html=1;" parent="1" vertex="1">
          <mxGeometry x="557.02" y="4464.5" width="110" height="17.5" as="geometry" />
        </mxCell>
        <mxCell id="tK4glbDDSP-7OP82E7w2-21" value="" style="endArrow=none;dashed=1;html=1;rounded=0;entryX=0;entryY=0.5;entryDx=0;entryDy=0;" parent="1" target="tK4glbDDSP-7OP82E7w2-4" edge="1">
          <mxGeometry width="50" height="50" relative="1" as="geometry">
            <mxPoint x="433.19" y="4460" as="sourcePoint" />
            <mxPoint x="633.1899999999999" y="4410" as="targetPoint" />
            <Array as="points">
              <mxPoint x="433.19" y="4400" />
              <mxPoint x="433.19" y="4345" />
            </Array>
          </mxGeometry>
        </mxCell>
        <mxCell id="tK4glbDDSP-7OP82E7w2-22" value="" style="endArrow=none;dashed=1;html=1;rounded=0;exitX=0.079;exitY=-0.094;exitDx=0;exitDy=0;exitPerimeter=0;" parent="1" source="tK4glbDDSP-7OP82E7w2-19" edge="1">
          <mxGeometry width="50" height="50" relative="1" as="geometry">
            <mxPoint x="443.19" y="4470" as="sourcePoint" />
            <mxPoint x="453.19" y="4400" as="targetPoint" />
            <Array as="points">
              <mxPoint x="433.19" y="4410" />
              <mxPoint x="433.19" y="4400" />
            </Array>
          </mxGeometry>
        </mxCell>
        <mxCell id="tK4glbDDSP-7OP82E7w2-23" value="" style="endArrow=none;dashed=1;html=1;rounded=0;entryX=1;entryY=0.5;entryDx=0;entryDy=0;" parent="1" target="tK4glbDDSP-7OP82E7w2-5" edge="1">
          <mxGeometry width="50" height="50" relative="1" as="geometry">
            <mxPoint x="653.1899999999999" y="4464" as="sourcePoint" />
            <mxPoint x="633.1899999999999" y="4410" as="targetPoint" />
            <Array as="points">
              <mxPoint x="653.1899999999999" y="4400" />
              <mxPoint x="653.1899999999999" y="4345" />
            </Array>
          </mxGeometry>
        </mxCell>
        <mxCell id="tK4glbDDSP-7OP82E7w2-24" value="" style="endArrow=none;dashed=1;html=1;rounded=0;entryX=1;entryY=0.5;entryDx=0;entryDy=0;" parent="1" target="tK4glbDDSP-7OP82E7w2-8" edge="1">
          <mxGeometry width="50" height="50" relative="1" as="geometry">
            <mxPoint x="653.1899999999999" y="4464" as="sourcePoint" />
            <mxPoint x="640.1899999999999" y="4355" as="targetPoint" />
            <Array as="points">
              <mxPoint x="653.1899999999999" y="4400" />
            </Array>
          </mxGeometry>
        </mxCell>
        <mxCell id="tK4glbDDSP-7OP82E7w2-25" value="&lt;font face=&quot;Times New Roman&quot;&gt;U-notification HW Resources&lt;/font&gt;" style="text;html=1;align=center;verticalAlign=middle;resizable=0;points=[];autosize=1;strokeColor=none;fillColor=none;" parent="1" vertex="1">
          <mxGeometry x="463.19" y="4535.5" width="170" height="30" as="geometry" />
        </mxCell>
        <mxCell id="tK4glbDDSP-7OP82E7w2-26" value="&lt;font style=&quot;font-size: 10px;&quot; face=&quot;Times New Roman&quot;&gt;&lt;b&gt;UINTC&lt;/b&gt;&lt;/font&gt;" style="text;html=1;align=center;verticalAlign=middle;whiteSpace=wrap;rounded=0;fontFamily=Helvetica;fontSize=12;fontColor=default;autosize=1;resizable=0;shadow=1;glass=0;" parent="1" vertex="1">
          <mxGeometry x="455.69" y="4434.5" width="60" height="30" as="geometry" />
        </mxCell>
        <mxCell id="tK4glbDDSP-7OP82E7w2-29" value="" style="endArrow=none;dashed=1;html=1;rounded=0;entryX=0.5;entryY=1;entryDx=0;entryDy=0;" parent="1" target="tK4glbDDSP-7OP82E7w2-9" edge="1">
          <mxGeometry width="50" height="50" relative="1" as="geometry">
            <mxPoint x="643.1899999999999" y="4495" as="sourcePoint" />
            <mxPoint x="743.1899999999999" y="4470" as="targetPoint" />
            <Array as="points">
              <mxPoint x="643.1899999999999" y="4520" />
              <mxPoint x="486.19" y="4520" />
            </Array>
          </mxGeometry>
        </mxCell>
        <mxCell id="tK4glbDDSP-7OP82E7w2-30" value="&lt;font face=&quot;Times New Roman&quot;&gt;Kernel&lt;/font&gt;" style="text;html=1;align=center;verticalAlign=middle;resizable=0;points=[];autosize=1;strokeColor=none;fillColor=none;" parent="1" vertex="1">
          <mxGeometry x="504.99999999999994" y="4270" width="60" height="30" as="geometry" />
        </mxCell>
        <mxCell id="tK4glbDDSP-7OP82E7w2-37" value="" style="rounded=0;whiteSpace=wrap;html=1;strokeWidth=2;container=0;shadow=1;" parent="1" vertex="1">
          <mxGeometry x="250" y="4305" width="135" height="65" as="geometry" />
        </mxCell>
        <mxCell id="tK4glbDDSP-7OP82E7w2-40" value="&lt;font face=&quot;Times New Roman&quot;&gt;Receiver Thread 1&lt;/font&gt;" style="text;html=1;align=center;verticalAlign=middle;resizable=0;points=[];autosize=1;strokeColor=none;fillColor=none;" parent="1" vertex="1">
          <mxGeometry x="263.89" y="4270" width="110" height="30" as="geometry" />
        </mxCell>
        <mxCell id="tK4glbDDSP-7OP82E7w2-42" value="" style="rounded=0;whiteSpace=wrap;html=1;strokeWidth=2;container=0;shadow=1;" parent="1" vertex="1">
          <mxGeometry x="725" y="4300" width="135" height="70" as="geometry" />
        </mxCell>
        <mxCell id="tK4glbDDSP-7OP82E7w2-44" value="" style="rounded=0;whiteSpace=wrap;html=1;" parent="1" vertex="1">
          <mxGeometry x="295" y="4315" width="90" height="55" as="geometry" />
        </mxCell>
        <mxCell id="tK4glbDDSP-7OP82E7w2-45" value="&lt;font face=&quot;Times New Roman&quot;&gt;&lt;span style=&quot;font-size: 10px;&quot;&gt;uintr vec map&lt;/span&gt;&lt;/font&gt;" style="rounded=0;whiteSpace=wrap;html=1;" parent="1" vertex="1">
          <mxGeometry x="300" y="4315" width="85" height="15" as="geometry" />
        </mxCell>
        <mxCell id="tK4glbDDSP-7OP82E7w2-46" value="&lt;font style=&quot;font-size: 10px;&quot; face=&quot;Times New Roman&quot;&gt;cap 1&lt;/font&gt;" style="rounded=0;whiteSpace=wrap;html=1;" parent="1" vertex="1">
          <mxGeometry x="355" y="4331" width="30" height="18" as="geometry" />
        </mxCell>
        <mxCell id="tK4glbDDSP-7OP82E7w2-47" value="&lt;font style=&quot;font-size: 10px;&quot; face=&quot;Times New Roman&quot;&gt;uintr vec&lt;/font&gt;" style="rounded=0;whiteSpace=wrap;html=1;" parent="1" vertex="1">
          <mxGeometry x="300" y="4331" width="55" height="18" as="geometry" />
        </mxCell>
        <mxCell id="tK4glbDDSP-7OP82E7w2-48" value="&lt;font face=&quot;Times New Roman&quot;&gt;Sender Thread 1&lt;/font&gt;" style="text;html=1;align=center;verticalAlign=middle;resizable=0;points=[];autosize=1;strokeColor=none;fillColor=none;" parent="1" vertex="1">
          <mxGeometry x="732.21" y="4270" width="100" height="30" as="geometry" />
        </mxCell>
        <mxCell id="tK4glbDDSP-7OP82E7w2-49" value="" style="rounded=0;whiteSpace=wrap;html=1;" parent="1" vertex="1">
          <mxGeometry x="725" y="4310" width="95" height="60" as="geometry" />
        </mxCell>
        <mxCell id="tK4glbDDSP-7OP82E7w2-50" value="&lt;font style=&quot;font-size: 10px;&quot; face=&quot;Times New Roman&quot;&gt;sender map&lt;/font&gt;" style="rounded=0;whiteSpace=wrap;html=1;" parent="1" vertex="1">
          <mxGeometry x="725" y="4310" width="85" height="15" as="geometry" />
        </mxCell>
        <mxCell id="tK4glbDDSP-7OP82E7w2-51" value="&lt;font style=&quot;font-size: 10px;&quot; face=&quot;Times New Roman&quot;&gt;cap 5&lt;/font&gt;" style="rounded=0;whiteSpace=wrap;html=1;" parent="1" vertex="1">
          <mxGeometry x="725" y="4326" width="35" height="18" as="geometry" />
        </mxCell>
        <mxCell id="tK4glbDDSP-7OP82E7w2-52" value="&lt;font style=&quot;font-size: 10px;&quot; face=&quot;Times New Roman&quot;&gt;sender id&lt;/font&gt;" style="rounded=0;whiteSpace=wrap;html=1;" parent="1" vertex="1">
          <mxGeometry x="760" y="4326" width="50" height="18" as="geometry" />
        </mxCell>
        <mxCell id="tK4glbDDSP-7OP82E7w2-53" value="&lt;font style=&quot;font-size: 10px;&quot; face=&quot;Times New Roman&quot;&gt;cap 6&lt;/font&gt;" style="rounded=0;whiteSpace=wrap;html=1;" parent="1" vertex="1">
          <mxGeometry x="725" y="4344" width="35" height="18" as="geometry" />
        </mxCell>
        <mxCell id="tK4glbDDSP-7OP82E7w2-54" value="&lt;font style=&quot;font-size: 10px;&quot; face=&quot;Times New Roman&quot;&gt;sender id&lt;/font&gt;" style="rounded=0;whiteSpace=wrap;html=1;" parent="1" vertex="1">
          <mxGeometry x="760" y="4344" width="50" height="18" as="geometry" />
        </mxCell>
        <mxCell id="tK4glbDDSP-7OP82E7w2-57" value="&lt;font style=&quot;font-size: 10px;&quot; face=&quot;Times New Roman&quot;&gt;cap 2&lt;/font&gt;" style="rounded=0;whiteSpace=wrap;html=1;" parent="1" vertex="1">
          <mxGeometry x="355" y="4349" width="30" height="18" as="geometry" />
        </mxCell>
        <mxCell id="tK4glbDDSP-7OP82E7w2-58" value="&lt;font style=&quot;font-size: 10px;&quot; face=&quot;Times New Roman&quot;&gt;uintr vec&lt;/font&gt;" style="rounded=0;whiteSpace=wrap;html=1;" parent="1" vertex="1">
          <mxGeometry x="300" y="4349" width="55" height="18" as="geometry" />
        </mxCell>
        <mxCell id="tK4glbDDSP-7OP82E7w2-59" value="" style="rounded=0;whiteSpace=wrap;html=1;strokeWidth=2;container=0;shadow=1;" parent="1" vertex="1">
          <mxGeometry x="250" y="4414.5" width="135" height="65" as="geometry" />
        </mxCell>
        <mxCell id="tK4glbDDSP-7OP82E7w2-60" value="&lt;font face=&quot;Times New Roman&quot;&gt;Receiver Thread 1&lt;/font&gt;" style="text;html=1;align=center;verticalAlign=middle;resizable=0;points=[];autosize=1;strokeColor=none;fillColor=none;" parent="1" vertex="1">
          <mxGeometry x="263.89" y="4379.5" width="110" height="30" as="geometry" />
        </mxCell>
        <mxCell id="tK4glbDDSP-7OP82E7w2-61" value="" style="rounded=0;whiteSpace=wrap;html=1;" parent="1" vertex="1">
          <mxGeometry x="295" y="4424.5" width="90" height="55" as="geometry" />
        </mxCell>
        <mxCell id="tK4glbDDSP-7OP82E7w2-62" value="&lt;font style=&quot;font-size: 10px;&quot; face=&quot;Times New Roman&quot;&gt;uintr vec map&lt;/font&gt;" style="rounded=0;whiteSpace=wrap;html=1;" parent="1" vertex="1">
          <mxGeometry x="300" y="4424.5" width="85" height="15" as="geometry" />
        </mxCell>
        <mxCell id="tK4glbDDSP-7OP82E7w2-63" value="&lt;font style=&quot;font-size: 10px;&quot; face=&quot;Times New Roman&quot;&gt;cap 3&lt;/font&gt;" style="rounded=0;whiteSpace=wrap;html=1;" parent="1" vertex="1">
          <mxGeometry x="355" y="4439.5" width="30" height="18" as="geometry" />
        </mxCell>
        <mxCell id="tK4glbDDSP-7OP82E7w2-64" value="&lt;font style=&quot;font-size: 10px;&quot; face=&quot;Times New Roman&quot;&gt;uintr vec&lt;/font&gt;" style="rounded=0;whiteSpace=wrap;html=1;" parent="1" vertex="1">
          <mxGeometry x="300" y="4439.5" width="55" height="18" as="geometry" />
        </mxCell>
        <mxCell id="tK4glbDDSP-7OP82E7w2-65" value="&lt;font style=&quot;font-size: 10px;&quot; face=&quot;Times New Roman&quot;&gt;cap 4&lt;/font&gt;" style="rounded=0;whiteSpace=wrap;html=1;" parent="1" vertex="1">
          <mxGeometry x="355" y="4457.5" width="30" height="18" as="geometry" />
        </mxCell>
        <mxCell id="tK4glbDDSP-7OP82E7w2-66" value="&lt;font style=&quot;font-size: 10px;&quot; face=&quot;Times New Roman&quot;&gt;uintr vec&lt;/font&gt;" style="rounded=0;whiteSpace=wrap;html=1;" parent="1" vertex="1">
          <mxGeometry x="300" y="4457.5" width="55" height="18" as="geometry" />
        </mxCell>
        <mxCell id="tK4glbDDSP-7OP82E7w2-67" value="" style="rounded=0;whiteSpace=wrap;html=1;strokeWidth=2;container=0;shadow=1;" parent="1" vertex="1">
          <mxGeometry x="725" y="4414.5" width="135" height="70" as="geometry" />
        </mxCell>
        <mxCell id="tK4glbDDSP-7OP82E7w2-68" value="" style="rounded=0;whiteSpace=wrap;html=1;" parent="1" vertex="1">
          <mxGeometry x="725" y="4424.5" width="95" height="60" as="geometry" />
        </mxCell>
        <mxCell id="tK4glbDDSP-7OP82E7w2-69" value="&lt;font style=&quot;font-size: 10px;&quot; face=&quot;Times New Roman&quot;&gt;sender map&lt;/font&gt;" style="rounded=0;whiteSpace=wrap;html=1;" parent="1" vertex="1">
          <mxGeometry x="725" y="4424.5" width="85" height="15" as="geometry" />
        </mxCell>
        <mxCell id="tK4glbDDSP-7OP82E7w2-70" value="&lt;font style=&quot;font-size: 10px;&quot; face=&quot;Times New Roman&quot;&gt;cap 7&lt;/font&gt;" style="rounded=0;whiteSpace=wrap;html=1;" parent="1" vertex="1">
          <mxGeometry x="725" y="4440.5" width="35" height="18" as="geometry" />
        </mxCell>
        <mxCell id="tK4glbDDSP-7OP82E7w2-71" value="&lt;font style=&quot;font-size: 10px;&quot; face=&quot;Times New Roman&quot;&gt;sender id&lt;/font&gt;" style="rounded=0;whiteSpace=wrap;html=1;" parent="1" vertex="1">
          <mxGeometry x="760" y="4440.5" width="50" height="18" as="geometry" />
        </mxCell>
        <mxCell id="tK4glbDDSP-7OP82E7w2-72" value="&lt;font style=&quot;font-size: 10px;&quot; face=&quot;Times New Roman&quot;&gt;cap 8&lt;/font&gt;" style="rounded=0;whiteSpace=wrap;html=1;" parent="1" vertex="1">
          <mxGeometry x="725" y="4458.5" width="35" height="18" as="geometry" />
        </mxCell>
        <mxCell id="tK4glbDDSP-7OP82E7w2-73" value="&lt;font style=&quot;font-size: 10px;&quot; face=&quot;Times New Roman&quot;&gt;sender id&lt;/font&gt;" style="rounded=0;whiteSpace=wrap;html=1;" parent="1" vertex="1">
          <mxGeometry x="760" y="4458.5" width="50" height="18" as="geometry" />
        </mxCell>
        <mxCell id="tK4glbDDSP-7OP82E7w2-74" value="&lt;font face=&quot;Times New Roman&quot;&gt;Sender Thread 2&lt;/font&gt;" style="text;html=1;align=center;verticalAlign=middle;resizable=0;points=[];autosize=1;strokeColor=none;fillColor=none;" parent="1" vertex="1">
          <mxGeometry x="730" y="4384.5" width="100" height="30" as="geometry" />
        </mxCell>
        <mxCell id="tK4glbDDSP-7OP82E7w2-75" value="" style="endArrow=classic;html=1;rounded=0;exitX=0;exitY=0.5;exitDx=0;exitDy=0;entryX=1;entryY=1;entryDx=0;entryDy=0;strokeColor=#f60404;" parent="1" source="tK4glbDDSP-7OP82E7w2-51" target="tK4glbDDSP-7OP82E7w2-3" edge="1">
          <mxGeometry width="50" height="50" relative="1" as="geometry">
            <mxPoint x="804" y="3969" as="sourcePoint" />
            <mxPoint x="682" y="3925" as="targetPoint" />
          </mxGeometry>
        </mxCell>
        <mxCell id="tK4glbDDSP-7OP82E7w2-76" value="" style="endArrow=classic;html=1;rounded=0;exitX=0;exitY=0.75;exitDx=0;exitDy=0;entryX=1;entryY=0.75;entryDx=0;entryDy=0;strokeColor=#f60404;" parent="1" source="tK4glbDDSP-7OP82E7w2-42" target="tK4glbDDSP-7OP82E7w2-6" edge="1">
          <mxGeometry width="50" height="50" relative="1" as="geometry">
            <mxPoint x="735" y="4345" as="sourcePoint" />
            <mxPoint x="640" y="4335" as="targetPoint" />
          </mxGeometry>
        </mxCell>
        <mxCell id="tK4glbDDSP-7OP82E7w2-77" value="" style="endArrow=classic;html=1;rounded=0;exitX=0;exitY=0.5;exitDx=0;exitDy=0;entryX=1;entryY=0;entryDx=0;entryDy=0;strokeColor=#fc0303;" parent="1" source="tK4glbDDSP-7OP82E7w2-70" target="tK4glbDDSP-7OP82E7w2-5" edge="1">
          <mxGeometry width="50" height="50" relative="1" as="geometry">
            <mxPoint x="735" y="4345" as="sourcePoint" />
            <mxPoint x="640" y="4345" as="targetPoint" />
          </mxGeometry>
        </mxCell>
        <mxCell id="tK4glbDDSP-7OP82E7w2-78" value="" style="endArrow=classic;html=1;rounded=0;exitX=0;exitY=0.5;exitDx=0;exitDy=0;entryX=1;entryY=0.75;entryDx=0;entryDy=0;strokeColor=#f90101;" parent="1" source="tK4glbDDSP-7OP82E7w2-72" target="tK4glbDDSP-7OP82E7w2-6" edge="1">
          <mxGeometry width="50" height="50" relative="1" as="geometry">
            <mxPoint x="735" y="4460" as="sourcePoint" />
            <mxPoint x="640" y="4345" as="targetPoint" />
          </mxGeometry>
        </mxCell>
        <mxCell id="tK4glbDDSP-7OP82E7w2-79" value="" style="endArrow=classic;html=1;rounded=0;exitX=1;exitY=0.5;exitDx=0;exitDy=0;entryX=0;entryY=0.5;entryDx=0;entryDy=0;strokeColor=#f70202;" parent="1" source="tK4glbDDSP-7OP82E7w2-37" target="tK4glbDDSP-7OP82E7w2-3" edge="1">
          <mxGeometry width="50" height="50" relative="1" as="geometry">
            <mxPoint x="735" y="4345" as="sourcePoint" />
            <mxPoint x="420" y="4270" as="targetPoint" />
          </mxGeometry>
        </mxCell>
        <mxCell id="tK4glbDDSP-7OP82E7w2-80" value="" style="endArrow=classic;html=1;rounded=0;entryX=0;entryY=0;entryDx=0;entryDy=0;exitX=1;exitY=0.5;exitDx=0;exitDy=0;strokeColor=#fc0303;" parent="1" source="tK4glbDDSP-7OP82E7w2-59" target="tK4glbDDSP-7OP82E7w2-4" edge="1">
          <mxGeometry width="50" height="50" relative="1" as="geometry">
            <mxPoint x="390" y="4390" as="sourcePoint" />
            <mxPoint x="390" y="4370" as="targetPoint" />
          </mxGeometry>
        </mxCell>
        <mxCell id="tK4glbDDSP-7OP82E7w2-81" value="" style="endArrow=classic;html=1;rounded=0;entryX=0;entryY=0.5;entryDx=0;entryDy=0;exitX=0.994;exitY=0.843;exitDx=0;exitDy=0;exitPerimeter=0;strokeColor=#fe0101;" parent="1" source="tK4glbDDSP-7OP82E7w2-37" target="tK4glbDDSP-7OP82E7w2-6" edge="1">
          <mxGeometry width="50" height="50" relative="1" as="geometry">
            <mxPoint x="400" y="4380" as="sourcePoint" />
            <mxPoint x="395" y="4348" as="targetPoint" />
          </mxGeometry>
        </mxCell>
        <mxCell id="tK4glbDDSP-7OP82E7w2-83" value="" style="endArrow=classic;html=1;rounded=0;entryX=0;entryY=0.75;entryDx=0;entryDy=0;exitX=1;exitY=0.75;exitDx=0;exitDy=0;strokeColor=#fc0303;" parent="1" source="tK4glbDDSP-7OP82E7w2-59" target="tK4glbDDSP-7OP82E7w2-6" edge="1">
          <mxGeometry width="50" height="50" relative="1" as="geometry">
            <mxPoint x="400" y="4480" as="sourcePoint" />
            <mxPoint x="395" y="4457" as="targetPoint" />
          </mxGeometry>
        </mxCell>
        <mxCell id="tK4glbDDSP-7OP82E7w2-84" value="" style="endArrow=classic;html=1;rounded=0;entryX=1;entryY=0.75;entryDx=0;entryDy=0;strokeColor=#050505;" parent="1" target="tK4glbDDSP-7OP82E7w2-14" edge="1">
          <mxGeometry width="50" height="50" relative="1" as="geometry">
            <mxPoint x="900" y="4330" as="sourcePoint" />
            <mxPoint x="832.21" y="4180" as="targetPoint" />
            <Array as="points">
              <mxPoint x="900" y="4500" />
            </Array>
          </mxGeometry>
        </mxCell>
        <mxCell id="tK4glbDDSP-7OP82E7w2-87" value="" style="endArrow=none;html=1;rounded=0;entryX=1;entryY=0.5;entryDx=0;entryDy=0;strokeColor=#050505;" parent="1" target="tK4glbDDSP-7OP82E7w2-52" edge="1">
          <mxGeometry width="50" height="50" relative="1" as="geometry">
            <mxPoint x="900" y="4335" as="sourcePoint" />
            <mxPoint x="590" y="4340" as="targetPoint" />
          </mxGeometry>
        </mxCell>
        <mxCell id="tK4glbDDSP-7OP82E7w2-88" value="" style="endArrow=none;html=1;rounded=0;entryX=1;entryY=0.5;entryDx=0;entryDy=0;strokeColor=#080808;" parent="1" target="tK4glbDDSP-7OP82E7w2-54" edge="1">
          <mxGeometry width="50" height="50" relative="1" as="geometry">
            <mxPoint x="900" y="4353" as="sourcePoint" />
            <mxPoint x="820" y="4345" as="targetPoint" />
          </mxGeometry>
        </mxCell>
        <mxCell id="tK4glbDDSP-7OP82E7w2-89" value="" style="endArrow=none;html=1;rounded=0;entryX=1;entryY=0.5;entryDx=0;entryDy=0;strokeColor=#080808;" parent="1" target="tK4glbDDSP-7OP82E7w2-71" edge="1">
          <mxGeometry width="50" height="50" relative="1" as="geometry">
            <mxPoint x="900" y="4450" as="sourcePoint" />
            <mxPoint x="820" y="4363" as="targetPoint" />
          </mxGeometry>
        </mxCell>
        <mxCell id="tK4glbDDSP-7OP82E7w2-90" value="" style="endArrow=none;html=1;rounded=0;entryX=1;entryY=0.5;entryDx=0;entryDy=0;strokeColor=#050505;" parent="1" target="tK4glbDDSP-7OP82E7w2-73" edge="1">
          <mxGeometry width="50" height="50" relative="1" as="geometry">
            <mxPoint x="900" y="4468" as="sourcePoint" />
            <mxPoint x="820" y="4460" as="targetPoint" />
          </mxGeometry>
        </mxCell>
        <mxCell id="kW4Wdr3nhDalloxlPrzp-2" value="" style="endArrow=classic;html=1;rounded=0;exitX=0;exitY=0.75;exitDx=0;exitDy=0;entryX=0;entryY=0.5;entryDx=0;entryDy=0;strokeColor=#000000;" parent="1" source="tK4glbDDSP-7OP82E7w2-10" target="tK4glbDDSP-7OP82E7w2-47" edge="1">
          <mxGeometry width="50" height="50" relative="1" as="geometry">
            <mxPoint x="263.89" y="4575.5" as="sourcePoint" />
            <mxPoint x="230" y="4400" as="targetPoint" />
            <Array as="points">
              <mxPoint x="230" y="4500" />
              <mxPoint x="230" y="4340" />
            </Array>
          </mxGeometry>
        </mxCell>
        <mxCell id="kW4Wdr3nhDalloxlPrzp-3" value="" style="endArrow=classic;html=1;rounded=0;entryX=0;entryY=0.5;entryDx=0;entryDy=0;strokeColor=#030303;" parent="1" target="tK4glbDDSP-7OP82E7w2-64" edge="1">
          <mxGeometry width="50" height="50" relative="1" as="geometry">
            <mxPoint x="230" y="4450" as="sourcePoint" />
            <mxPoint x="480" y="4400" as="targetPoint" />
          </mxGeometry>
        </mxCell>
        <mxCell id="kW4Wdr3nhDalloxlPrzp-5" value="" style="endArrow=none;dashed=1;html=1;rounded=0;exitX=1;exitY=0.75;exitDx=0;exitDy=0;strokeColor=#FF2C14;entryX=0;entryY=0.5;entryDx=0;entryDy=0;" parent="1" source="tK4glbDDSP-7OP82E7w2-46" target="tK4glbDDSP-7OP82E7w2-4" edge="1">
          <mxGeometry width="50" height="50" relative="1" as="geometry">
            <mxPoint x="386" y="4225" as="sourcePoint" />
            <mxPoint x="484" y="4220" as="targetPoint" />
          </mxGeometry>
        </mxCell>
        <mxCell id="kW4Wdr3nhDalloxlPrzp-6" value="&lt;font color=&quot;#ff2c14&quot;&gt;Bind&lt;/font&gt;" style="edgeLabel;html=1;align=center;verticalAlign=middle;resizable=0;points=[];" parent="kW4Wdr3nhDalloxlPrzp-5" vertex="1" connectable="0">
          <mxGeometry x="-0.148" relative="1" as="geometry">
            <mxPoint as="offset" />
          </mxGeometry>
        </mxCell>
        <mxCell id="kW4Wdr3nhDalloxlPrzp-7" value="" style="endArrow=none;dashed=1;html=1;rounded=0;exitX=1.01;exitY=0.583;exitDx=0;exitDy=0;strokeColor=#FF2C14;entryX=0;entryY=0.5;entryDx=0;entryDy=0;exitPerimeter=0;" parent="1" source="tK4glbDDSP-7OP82E7w2-59" target="tK4glbDDSP-7OP82E7w2-7" edge="1">
          <mxGeometry width="50" height="50" relative="1" as="geometry">
            <mxPoint x="395" y="4355" as="sourcePoint" />
            <mxPoint x="465" y="4355" as="targetPoint" />
          </mxGeometry>
        </mxCell>
        <mxCell id="kW4Wdr3nhDalloxlPrzp-8" value="&lt;font color=&quot;#ff2c14&quot;&gt;Bind&lt;/font&gt;" style="edgeLabel;html=1;align=center;verticalAlign=middle;resizable=0;points=[];" parent="kW4Wdr3nhDalloxlPrzp-7" vertex="1" connectable="0">
          <mxGeometry x="-0.148" relative="1" as="geometry">
            <mxPoint as="offset" />
          </mxGeometry>
        </mxCell>
        <mxCell id="kW4Wdr3nhDalloxlPrzp-9" value="" style="endArrow=classic;html=1;rounded=0;strokeColor=#f90101;" parent="1" edge="1">
          <mxGeometry width="50" height="50" relative="1" as="geometry">
            <mxPoint x="850.0600000000001" y="4234.75" as="sourcePoint" />
            <mxPoint x="808.8900000000001" y="4234.75" as="targetPoint" />
          </mxGeometry>
        </mxCell>
        <mxCell id="kW4Wdr3nhDalloxlPrzp-10" value="" style="endArrow=classic;html=1;rounded=0;strokeColor=#080808;" parent="1" edge="1">
          <mxGeometry width="50" height="50" relative="1" as="geometry">
            <mxPoint x="851.1" y="4254.75" as="sourcePoint" />
            <mxPoint x="809.9300000000001" y="4254.75" as="targetPoint" />
          </mxGeometry>
        </mxCell>
        <mxCell id="kW4Wdr3nhDalloxlPrzp-11" value="&lt;font face=&quot;Times New Roman&quot; style=&quot;font-size: 10px;&quot;&gt;Control Flow&lt;/font&gt;" style="text;html=1;align=center;verticalAlign=middle;whiteSpace=wrap;rounded=0;" parent="1" vertex="1">
          <mxGeometry x="851.1" y="4220" width="60" height="30" as="geometry" />
        </mxCell>
        <mxCell id="kW4Wdr3nhDalloxlPrzp-12" value="&lt;font face=&quot;Times New Roman&quot; style=&quot;font-size: 10px;&quot;&gt;Data Flow&lt;/font&gt;" style="text;html=1;align=center;verticalAlign=middle;whiteSpace=wrap;rounded=0;" parent="1" vertex="1">
          <mxGeometry x="851.1" y="4240" width="60" height="30" as="geometry" />
        </mxCell>
        <mxCell id="kW4Wdr3nhDalloxlPrzp-14" value="&lt;font style=&quot;font-size: 10px;&quot; face=&quot;Times New Roman&quot;&gt;Runtime&lt;/font&gt;" style="text;html=1;align=center;verticalAlign=middle;whiteSpace=wrap;rounded=0;" parent="1" vertex="1">
          <mxGeometry x="240" y="4301" width="60" height="30" as="geometry" />
        </mxCell>
        <mxCell id="kW4Wdr3nhDalloxlPrzp-15" value="&lt;font style=&quot;font-size: 10px;&quot; face=&quot;Times New Roman&quot;&gt;Runtime&lt;/font&gt;" style="text;html=1;align=center;verticalAlign=middle;whiteSpace=wrap;rounded=0;" parent="1" vertex="1">
          <mxGeometry x="240" y="4410" width="60" height="30" as="geometry" />
        </mxCell>
        <mxCell id="kW4Wdr3nhDalloxlPrzp-16" value="&lt;font style=&quot;font-size: 10px;&quot; face=&quot;Times New Roman&quot;&gt;Runtime&lt;/font&gt;" style="text;html=1;align=center;verticalAlign=middle;whiteSpace=wrap;rounded=0;" parent="1" vertex="1">
          <mxGeometry x="810" y="4300" width="60" height="30" as="geometry" />
        </mxCell>
        <mxCell id="kW4Wdr3nhDalloxlPrzp-17" value="&lt;font style=&quot;font-size: 10px;&quot; face=&quot;Times New Roman&quot;&gt;Runtime&lt;/font&gt;" style="text;html=1;align=center;verticalAlign=middle;whiteSpace=wrap;rounded=0;" parent="1" vertex="1">
          <mxGeometry x="810" y="4417" width="60" height="30" as="geometry" />
        </mxCell>
      </root>
    </mxGraphModel>
  </diagram>
</mxfile>
